<?xml version="1.0" encoding="utf-8"?>
<!-- Generator: Adobe Illustrator 27.8.1, SVG Export Plug-In . SVG Version: 6.00 Build 0)  -->
<svg version="1.1" id="Layer_1" xmlns="http://www.w3.org/2000/svg" xmlns:xlink="http://www.w3.org/1999/xlink" x="0px" y="0px"
	 viewBox="0 0 500 500" style="enable-background:new 0 0 500 500;" xml:space="preserve">
<style type="text/css">
	.st0{fill:#3334A8;}
</style>
<g>
	<path class="st0" d="M454.4,99.1c0,100.6,0,201.3,0,301.9c-0.3,1-0.6,2-0.8,3c-3.7,20.3-14.6,35.3-33.2,44.3
		c-6.1,2.9-13,4.2-19.6,6.2c-34.3,0-68.7,0-103,0c0-48.1,0-96.2,0-144.6c20.5,0,40.4,0,60.7,0c4-24,8-47.7,12-72
		c-24.5,0-48.5,0-72.5,0c0-16.4,0-32.3,0-48.6c24.2,0,48.2,0,72.2,0c0-24.2,0-47.9,0-71.8c-23.8,0-47.4-0.1-70.9,0
		c-41.7,0.1-73.1,31.6-73.3,73.3c0,14.2,0,28.5,0,42.7c0,1.4,0,2.8,0,4.7c-16.2,0-32,0-47.7,0c0,24.1,0,47.7,0,71.8
		c15.9,0,31.7,0,47.7,0c0,48.5,0,96.5,0,144.5c-42.3,0-84.6,0-127,0c-0.6-0.2-1.2-0.6-1.9-0.7c-30.8-5.2-51.6-29.2-51.6-60
		c-0.1-95.8-0.1-191.6,0.1-287.5c0-6.7,1.1-13.6,3.2-19.9c8.4-25.3,30.8-40.8,58.2-40.8c90.3,0,180.7,0,271,0
		c6.1,0,12.3-0.3,18.4,0.1c23.4,1.4,40.9,12.5,51.5,33.4C451.1,85.3,452.3,92.4,454.4,99.1z"/>
</g>
</svg>
