<?xml version="1.0" encoding="utf-8"?>
<!-- Generator: Adobe Illustrator 27.8.1, SVG Export Plug-In . SVG Version: 6.00 Build 0)  -->
<svg version="1.1" id="Layer_1" xmlns="http://www.w3.org/2000/svg" xmlns:xlink="http://www.w3.org/1999/xlink" x="0px" y="0px"
	 viewBox="0 0 500 500" style="enable-background:new 0 0 500 500;" xml:space="preserve">
<style type="text/css">
	.st0{fill:#3334A8;}
</style>
<g>
	<path class="st0" d="M324.2,442c-49.8,0-99.5,0-149.2,0c-1.2-0.2-2.4-0.5-3.7-0.5c-12.6-0.6-25.2-1-37.7-1.8
		c-22.2-1.5-41.1-9.9-55.3-27.3c-9.6-11.8-14.4-25.8-17.3-40.5c-1.1-5.8-2-11.7-3-17.6c0-69.8,0-139.5,0-209.2
		c0.2-1.5,0.4-2.9,0.7-4.4c1.9-9.5,2.5-19.5,5.9-28.4c11.7-31.2,35.1-47.9,67.9-52c6.7-0.8,13.3-1.5,20-2.2c66.8,0,133.5,0,200.2,0
		c4.8,0.5,9.7,0.9,14.5,1.5c34.2,4.8,58,22.8,69.2,55.9c2.9,8.8,3.8,18.2,5.6,27.4c0,72,0,144,0,216c-1,5.6-1.7,11.3-3,16.8
		c-6.8,28.8-23.2,49.5-51.4,60c-10.9,4.1-22.2,4.1-33.5,4.9C344.2,441.1,334.2,441.5,324.2,442z M392.6,249.9c-0.2,0-0.5,0-0.7,0
		c0-13.6,0.4-27.3-0.1-40.9c-0.4-12-1-24-3-35.8c-4.7-27.8-20.2-47.7-46.8-58c-14.5-5.7-29.9-6.8-45.3-7
		c-25.9-0.3-51.7-0.3-77.6-0.2c-17.4,0-34.7,0.5-51.7,4.6c-26.7,6.4-44.7,22.3-53.3,48.5c-4.1,12.3-5.5,25.1-5.6,38
		c-0.3,30.7-0.5,61.5-0.2,92.2c0.1,11.8,1.1,23.7,3,35.4c4.2,25.4,16.9,45.1,41.3,55.8c15.1,6.6,31.2,8.7,47.5,9.1
		c25.4,0.5,50.7,0.5,76.1,0.6c16.6,0.1,33.2-0.1,49.7-3.2c19.4-3.6,36.4-11.3,48.7-27.5c10-13.3,15-28.6,15.9-44.9
		C391.6,294.3,391.9,272.1,392.6,249.9z"/>
	<path class="st0" d="M250.3,133.4c19.5,0.4,39,0.6,58.4,1.4c6.8,0.3,13.6,1.7,20.3,3.4c15.5,4,25.3,14.3,30.4,29.3
		c4.8,14.2,6.8,29,6.9,43.8c0.2,29.6-0.4,59.2-0.9,88.8c-0.1,7.5-0.8,15-2.1,22.3c-4,22.7-17.7,36.1-40.2,40.8
		c-15.2,3.1-30.5,3.2-45.9,3.1c-21.1-0.1-42.2,0-63.3-0.8c-13.8-0.5-27.7-1.8-41.3-4.1c-18.9-3.1-30.6-14.8-33.9-33.7
		c-2.1-11.9-3.8-24-3.9-36c-0.3-31.6,0.2-63.2,0.9-94.8c0.2-8.4,2-16.8,3.6-25.1c4.1-20.4,16.9-31.7,37.4-34.9
		c18.4-2.9,36.8-2.6,55.3-2.9c6.1-0.1,12.2,0,18.4,0C250.3,133.7,250.3,133.6,250.3,133.4z M177,250c0,40.4,32.3,72.9,72.7,73
		c39.9,0.1,73.1-32.3,73.2-71.4c0-41.8-31.7-74.4-72.7-74.5C209.7,176.9,177.1,209.4,177,250z M325.7,191.5
		c9.5,0,17.1-7.6,17.1-17.1s-7.6-17.1-17.1-17.2c-9.7-0.1-17.3,7.6-17.2,17.4C308.6,184.1,316.1,191.5,325.7,191.5z"/>
	<path class="st0" d="M203.3,249.5c0.3-27.4,19.8-46.7,47-46.5s46.6,20.2,46.3,47.7c-0.3,27.6-19.9,46.8-47.4,46.5
		C222.3,296.8,203.1,276.8,203.3,249.5z"/>
</g>
</svg>
