<?xml version="1.0" encoding="utf-8"?>
<!-- Generator: Adobe Illustrator 27.8.1, SVG Export Plug-In . SVG Version: 6.00 Build 0)  -->
<svg version="1.1" id="Layer_1" xmlns="http://www.w3.org/2000/svg" xmlns:xlink="http://www.w3.org/1999/xlink" x="0px" y="0px"
	 viewBox="0 0 500 500" style="enable-background:new 0 0 500 500;" xml:space="preserve">
<style type="text/css">
	.st0{fill:#3334A8;}
</style>
<g>
	<path class="st0" d="M42.3,388c0-92,0-183.8,0-275.8c0.2-0.9,0.6-1.8,0.7-2.7c4.1-31.2,27.6-57.2,58.4-64.8
		c3.6-0.8,7.1-1.5,10.5-2.3c92,0,183.8,0,275.8,0c0.6,0.2,1.2,0.6,1.9,0.7c34.3,3.2,68.2,35.4,67.9,77.4
		c-0.2,86.4-0.1,172.8-0.1,259.1c0,11-1.7,21.9-6.6,31.9c-14.9,29.7-38.8,46.1-72.7,46.1c-68.2,0.1-136.3,0-204.5,0
		c-18.8,0-37.6,0.4-56.4-0.1c-34.8-0.8-64.7-25.2-73-59C43.8,395.1,43.1,391.5,42.3,388z M358.6,182c-0.2-0.5-0.5-0.9-0.7-1.4
		c10.9-7.2,18.4-16.8,22.8-30.2c-11.1,6.3-21.9,10.8-33.7,13c-1.3,0.2-3.2-0.2-4.1-1.1c-9.1-9-20-13.9-32.6-15.6
		c-28.9-4.1-58.6,17.2-62.7,46c-1.1,7.5-0.1,15.3-0.1,23.3c-47.4-3.4-86.2-23.3-117.3-59.7c-12.9,29.6-9.5,54.9,15.9,75.7
		c-0.2,0.4-0.5,0.7-0.7,1.1c-8.3-2.3-16.5-4.5-25.2-6.9c2.1,28.8,17.8,46.7,44.9,55.4c0,0.4,0,0.7-0.1,1.2c-7.2,0-14.3,0-22.3,0
		c9.8,24.1,26.7,37.3,52.7,39.6c-24.8,19-51.9,26.2-82.5,23.6c0.8,0.7,1.2,1.1,1.5,1.3c12.8,7.8,26.5,14,41,17.9
		c22.2,6.2,44.7,7.2,67.4,4c29.2-4,55.8-14.5,78.1-33.8c39.5-34.4,59.7-77.9,59.4-130.5c0-1.5,0.9-3.6,2.1-4.6
		c3.9-3.7,8.4-6.9,12.1-10.8c4.6-4.7,8.7-10.1,12.9-15.1c-0.2-0.1-0.5-0.4-0.7-0.5C377.4,176.7,368,179.4,358.6,182z"/>
</g>
</svg>
